<svg width="30" height="17" viewBox="0 0 30 17" fill="none" xmlns="http://www.w3.org/2000/svg">
<path d="M17 8.5C17 13.1944 13.1944 17 8.5 17C3.80558 17 0 13.1944 0 8.5C0 3.80558 3.80558 0 8.5 0C13.1944 0 17 3.80558 17 8.5Z" fill="#292929"/>
<path d="M26 8.5C26 12.9183 24.2091 16.5 22 16.5C19.7909 16.5 18 12.9183 18 8.5C18 4.08172 19.7909 0.5 22 0.5C24.2091 0.5 26 4.08172 26 8.5Z" fill="#292929"/>
<path d="M29.5 8.5C29.5 12.6421 28.9404 16 28.25 16C27.5596 16 27 12.6421 27 8.5C27 4.35786 27.5596 1 28.25 1C28.9404 1 29.5 4.35786 29.5 8.5Z" fill="#292929"/>
</svg>
