<svg width="118" height="19" viewBox="0 0 118 19" fill="none" xmlns="http://www.w3.org/2000/svg">
<path d="M42.68 11.5682H40.856V15.8882C40.856 16.2242 40.944 16.4482 41.12 16.5602L43.784 17.9522V18.0002H35.408V17.9522L37.256 16.6562C37.432 16.5282 37.52 16.3522 37.52 16.1282V3.00017C37.52 2.77617 37.432 2.60017 37.256 2.47217L35.408 1.17617V1.12817H43.136C44.96 1.12817 46.44 1.54417 47.576 2.37617C48.712 3.20817 49.28 4.49617 49.28 6.24017C49.28 7.95217 48.664 9.27217 47.432 10.2002C46.216 11.1122 44.632 11.5682 42.68 11.5682ZM40.856 2.06417V11.1122H42.248C43.272 11.1122 44.104 10.7122 44.744 9.91217C45.4 9.09617 45.728 7.88817 45.728 6.28817C45.728 4.75217 45.424 3.58417 44.816 2.78417C44.208 1.98417 43.392 1.58417 42.368 1.58417H41.312C41.136 1.58417 41.016 1.61617 40.952 1.68017C40.888 1.74417 40.856 1.87217 40.856 2.06417Z" fill="black"/>
<path d="M57.3637 7.72817C56.9637 6.86417 56.3797 6.43217 55.6117 6.43217C54.8437 6.43217 54.2597 6.85617 53.8597 7.70417C53.4597 8.55217 53.2597 10.0162 53.2597 12.0962C53.2597 14.1922 53.4597 15.6722 53.8597 16.5362C54.2597 17.3842 54.8437 17.8082 55.6117 17.8082C56.3797 17.8082 56.9637 17.3842 57.3637 16.5362C57.7797 15.6722 57.9877 14.2002 57.9877 12.1202C57.9877 10.0402 57.7797 8.57617 57.3637 7.72817ZM59.8357 16.6082C58.7957 17.6642 57.3877 18.1922 55.6117 18.1922C53.8357 18.1922 52.4277 17.6642 51.3877 16.6082C50.3477 15.5522 49.8277 14.0482 49.8277 12.0962C49.8277 10.1602 50.3477 8.67217 51.3877 7.63217C52.4277 6.57617 53.8357 6.04817 55.6117 6.04817C57.4037 6.04817 58.8117 6.57617 59.8357 7.63217C60.8757 8.67217 61.3957 10.1682 61.3957 12.1202C61.3957 14.0562 60.8757 15.5522 59.8357 16.6082Z" fill="black"/>
<path d="M73.7109 0.576172V16.2002C73.7109 16.4402 73.7909 16.6242 73.9509 16.7522L75.3909 17.9522V18.0002H70.6869V15.6482C70.0149 17.3442 68.8549 18.1922 67.2069 18.1922C65.8789 18.1922 64.7989 17.6482 63.9669 16.5602C63.1349 15.4722 62.7189 14.0162 62.7189 12.1922C62.7189 10.3522 63.1829 8.87217 64.1109 7.75217C65.0389 6.61617 66.1989 6.04817 67.5909 6.04817C69.0309 6.04817 70.0629 6.72017 70.6869 8.06417V2.76017C70.6869 2.52017 70.6069 2.33617 70.4469 2.20817L69.0309 1.17617V1.12817L73.7109 0.576172ZM68.6469 16.7282C69.3829 16.7282 70.0629 16.2962 70.6869 15.4322V8.30417C70.1589 7.56817 69.5029 7.20017 68.7189 7.20017C67.9189 7.20017 67.2549 7.59217 66.7269 8.37617C66.2149 9.16017 65.9589 10.3602 65.9589 11.9762C65.9589 13.5762 66.2069 14.7682 66.7029 15.5522C67.2149 16.3362 67.8629 16.7282 68.6469 16.7282Z" fill="black"/>
<path d="M80.3457 4.20017C80.0257 4.50417 79.6337 4.65617 79.1697 4.65617C78.7057 4.65617 78.3138 4.50417 77.9938 4.20017C77.6738 3.89617 77.5137 3.52017 77.5137 3.07217C77.5137 2.59217 77.6738 2.20017 77.9938 1.89617C78.3138 1.57617 78.7057 1.41617 79.1697 1.41617C79.6497 1.41617 80.0498 1.57617 80.3698 1.89617C80.6898 2.20017 80.8497 2.59217 80.8497 3.07217C80.8497 3.52017 80.6817 3.89617 80.3457 4.20017ZM76.1217 6.24017H80.8018V16.3922C80.8018 16.6002 80.8898 16.7762 81.0658 16.9202L82.4818 17.9522V18.0002H76.1217V17.9522L77.5378 16.9202C77.6978 16.7922 77.7777 16.6162 77.7777 16.3922V8.04017C77.7777 7.80017 77.6978 7.61617 77.5378 7.48817L76.1217 6.28817V6.24017Z" fill="black"/>
<path d="M94.3833 6.24017V16.2002C94.3833 16.4402 94.4633 16.6242 94.6233 16.7522L96.0393 17.9522V18.0002H91.3353V15.3362C90.6633 17.2402 89.4793 18.1922 87.7833 18.1922C85.4953 18.1922 84.3513 16.5682 84.3513 13.3202C84.3513 12.3602 84.3673 10.6002 84.3993 8.04017C84.3993 7.80017 84.3193 7.60817 84.1593 7.46417L82.7193 6.28817V6.24017H87.4233C87.4233 6.25617 87.4153 6.75217 87.3993 7.72817C87.3993 8.70417 87.3913 9.71217 87.3753 10.7522C87.3753 11.7922 87.3753 12.4082 87.3753 12.6002C87.3753 13.9282 87.5193 14.9202 87.8073 15.5762C88.0953 16.2162 88.5833 16.5362 89.2713 16.5362C90.0713 16.5362 90.7593 16.0482 91.3353 15.0722V8.04017C91.3353 7.80017 91.2553 7.61617 91.0953 7.48817L89.6793 6.28817V6.24017H94.3833Z" fill="black"/>
<path d="M108.65 10.9442C108.65 12.0162 108.634 13.8322 108.602 16.3922C108.602 16.6002 108.69 16.7762 108.866 16.9202L110.282 17.9522V18.0002H103.922V17.9522L105.266 16.9202C105.458 16.7922 105.554 16.6242 105.554 16.4162C105.554 16.4002 105.562 15.7042 105.578 14.3282C105.61 12.9362 105.626 12.0322 105.626 11.6162C105.626 10.2722 105.474 9.28817 105.17 8.66417C104.882 8.02417 104.378 7.70417 103.658 7.70417C102.778 7.70417 102.05 8.19217 101.474 9.16817V16.3922C101.474 16.6002 101.562 16.7762 101.738 16.9202L103.154 17.9522V18.0002H96.7936V17.9522L98.2096 16.9202C98.3696 16.7922 98.4496 16.6162 98.4496 16.3922V8.04017C98.4496 7.80017 98.3696 7.61617 98.2096 7.48817L96.7936 6.28817V6.24017H101.474V8.97617C102.066 7.02417 103.29 6.04817 105.146 6.04817C106.922 6.04817 108.026 7.01617 108.458 8.95217C108.746 8.05617 109.226 7.35217 109.898 6.84017C110.57 6.31217 111.378 6.04817 112.322 6.04817C113.426 6.04817 114.274 6.45617 114.866 7.27217C115.474 8.08817 115.778 9.31217 115.778 10.9442C115.778 12.0162 115.762 13.8322 115.73 16.3922C115.73 16.6002 115.818 16.7762 115.994 16.9202L117.41 17.9522V18.0002H111.05V17.9522L112.394 16.9202C112.586 16.7922 112.682 16.6242 112.682 16.4162C112.682 16.3842 112.69 15.6882 112.706 14.3282C112.738 12.9522 112.754 12.0642 112.754 11.6642C112.754 10.3202 112.602 9.32817 112.298 8.68817C112.01 8.03217 111.506 7.70417 110.786 7.70417C109.874 7.70417 109.106 8.16817 108.482 9.09617C108.594 9.60817 108.65 10.2242 108.65 10.9442Z" fill="black"/>
<path d="M17 9.50017C17 14.1946 13.1944 18.0002 8.5 18.0002C3.80558 18.0002 0 14.1946 0 9.50017C0 4.80575 3.80558 1.00017 8.5 1.00017C13.1944 1.00017 17 4.80575 17 9.50017Z" fill="black"/>
<path d="M26 9.50017C26 13.9184 24.2091 17.5002 22 17.5002C19.7909 17.5002 18 13.9184 18 9.50017C18 5.08189 19.7909 1.50017 22 1.50017C24.2091 1.50017 26 5.08189 26 9.50017Z" fill="black"/>
<path d="M29.5 9.50017C29.5 13.6423 28.9404 17.0002 28.25 17.0002C27.5596 17.0002 27 13.6423 27 9.50017C27 5.35804 27.5596 2.00017 28.25 2.00017C28.9404 2.00017 29.5 5.35804 29.5 9.50017Z" fill="black"/>
</svg>
